<svg xmlns="http://www.w3.org/2000/svg" width="389.632" height="80.656" id="logo" viewBox="0 0 389.632 80.656">
<style type="text/css">
#logo path {
fill: #374151;
}
</style>
	<g id="TNF_Logo" data-name="TNF Logo" transform="translate(194.816 40.328)">
		<g id="Logo_v3" data-name="Logo v3" transform="translate(-194.816 -40.328)">
			<g id="Group_7" data-name="Group 7">
				<path id="Path_49" data-name="Path 49" d="M97.275,38.488c2.542-1.27,4.506-4.159,6.7-6.007s5.083-3.235,7.047-5.314c1.733-1.964,8.318-5.661,10.86-6.817,3.7-1.848,7.163-4.043,10.859-6.007,4.621-2.311,9.705-2.311,14.442-4.159a16.981,16.981,0,0,1,5.891-.924c3.35,0,6.586.693,9.82.693,1.271,0,2.542-.463,3.812-.463,2.427,0,5.084,1.734,7.164,2.773,2.194,1.271,4.505,3.235,4.505,6.008,0,4.044-5.661,8.9-8.78,10.744-1.5,1.04-7.278,5.776-8.318,5.892-1.733.462-3.581,2.195-6.239,2.888-1.155.347-2.194.809-2.194,2.2,0,.925.692,2.311,1.733,2.311,1.964,0,6.238-4.737,9.588-5.2,3.466-.577,5.661-3.35,8.665-4.968,3.812-1.964,9.589-8.087,9.589-12.477,0-3.235-2.312-6.007-4.622-7.971A23.176,23.176,0,0,0,162.78,6.6c-5.2,0-19.409.232-23.8,2.08-4.043,1.733-12.246,4.159-15.365,6.469-3.351,2.311-7.163,4.044-10.282,6.47a66.4,66.4,0,0,1-7.625,4.968c-1.964,1.04-2.657,3.235-4.391,4.39-2.425,1.617-4.389,3.812-6.816,5.43a12.74,12.74,0,0,0-2.31,2.657c-.162.149-.329.286-.493.43v4.681C93.624,42.05,95.805,39.267,97.275,38.488Z" fill="#030504"/>
				<path id="Path_50" data-name="Path 50" d="M70.7,16.192H68.277a34.041,34.041,0,0,0-3.931.176h7.82A7.689,7.689,0,0,0,70.7,16.192Z" fill="#030504"/>
				<path id="Path_51" data-name="Path 51" d="M67.816,76.728a6.382,6.382,0,0,0,3.1-1.36H65.436A3.028,3.028,0,0,0,67.816,76.728Z" fill="#030504"/>
				<path id="Path_52" data-name="Path 52" d="M27.034,66.215a30.476,30.476,0,0,1-15.828,4.968c-1.848,0-4.62-1.156-4.62-3.35,0-.809,1.27-1.849,1.27-4.275,0-1.964-1.155-5.43-3.581-5.43C1.733,58.128,0,62.865,0,64.944c0,5.083,1.155,6.47,5.315,8.9a4.771,4.771,0,0,0,2.194.578c1.387,0,2.773-.347,4.159-.347.694,0,1.271.116,1.849.116,2.542,0,4.853-1.734,6.7-1.734,2.542,0,7.625-3.234,9.821-4.736.87-.593,1.76-1.165,2.661-1.727V62.2C30.771,63.493,28.963,64.975,27.034,66.215Z" fill="#030504"/>
				<path id="Path_53" data-name="Path 53" d="M222.264,64.02c-1.849,0-6.585,3.351-9.012,3.581s-4.39,2.311-7.971,2.311c-2.08,0-4.968-1.849-4.968-4.043,0-1.271,4.39-2.311,5.314-3.235,2.542-2.311,6.123-2.195,6.123-7.279,0-1.732-1.04-1.964-2.426-1.964h-1.039c-2.311,0-4.391,2.08-6.355,3.235a12,12,0,0,0-4.39,4.275c-1.309,1.87-1.877,2.908-3.328,3.91-.082.044-.174.1-.249.133-1.039.463-1.964.809-3,1.387-1.5.924-3.351,1.04-4.968,1.964a7.748,7.748,0,0,1-4.505,1.155c-1.5,0-3-.116-3-1.271,0-4.39,3.582-6.007,3.582-7.856,0-1.964-2.081-3.581-3.929-3.581-2.31,0-3.35,2.426-5.2,2.657-2.888.462-7.74,4.275-9.819,4.275-.347,0-.463-.116-.463-.463,0-1.039,1.04-2.195,1.04-3,0-1.618-3.465-3.12-4.852-3.12-1.733,0-3,1.733-5.546,1.733-2.657.116-4.5,2.542-6.7,3.7a11.666,11.666,0,0,0-2.079,1.04c-.809,0-1.5.346-2.2.346s-1.041-.346-1.041-.923c0-1.156.694-2.2.694-3.235,0-1.618-2.311-1.965-3.466-2.311-1.156-.231-.578-.809-1.733-.809-3.351,0-7.856,4.159-10.513,6.008a23.7,23.7,0,0,1-3.581,2.31,3.112,3.112,0,0,0-.464.343c-.563.266-1.064.52-1.383.7a45.05,45.05,0,0,1-8.086,2.311c-1.156,0-1.848-1.5-1.848-2.542,0-1.617,2.079-3.813,2.079-6.123,0-1.5-.578-3.813-2.427-3.813-1.039,0-2.079.463-3.234.463h-.463c-2.888,0-5.2,2.079-7.393,3.234-2.657,1.5-7.278,4.737-7.278,8.087,0,2.542,1.039,3,3.234,3.582a14.735,14.735,0,0,0,3.928.693c3,0,4.39-2.195,6.008-2.195,1.849,0,1.733,2.772,4.389,2.772a17.463,17.463,0,0,0,4.275-.808,17.008,17.008,0,0,1,3.235-1.618,67.412,67.412,0,0,0,8.781-3.927,3.405,3.405,0,0,0,.718-.663,7.022,7.022,0,0,1,1.936-.839c2.311-.462,2.657-3,6.123-3,.808,0,1.386.231,1.386,1.155,0,1.155-1.155,4.968-2.31,5.661a1.956,1.956,0,0,0-1.04,1.617c0,.809,2.426,2.2,3.235,2.2,1.386,0,3-2.426,4.043-3.235A19.367,19.367,0,0,1,145.9,66.1a8.556,8.556,0,0,0,4.622-1.849,5.5,5.5,0,0,1,2.888-1.04c1.271,0,2.2.578,2.2,1.849,0,2.426-3,3-3,5.083,0,1.271,3.12,2.657,3.12,2.657a2.264,2.264,0,0,0,.924-.115c1.617-.232,1.964-2.888,3.465-3.813a41.221,41.221,0,0,1,4.969-2.657c1.27-.578,2.656-1.849,4.043-1.849,2.427,0,2.773-1.27,4.274-1.27.463,0,1.272.115,1.272.693s-.925,1.733-.925,3.35a4.943,4.943,0,0,0,4.737,5.2c.693,0,1.27-.231,1.964-.231.461,0,.924.116,1.386.116,4.038,0,7.968-2.937,11.577-4.483.924.234,1.293,2.684,4.593,3.674a11.3,11.3,0,0,1,3.466,1.271,5.1,5.1,0,0,0,2.541.577c2.426,0,10.629-2.772,12.708-4.274a21.248,21.248,0,0,1,3.466-2.08c.808-.231,3.119-.924,3.119-1.964A.943.943,0,0,0,222.264,64.02ZM203.433,59.4A6.164,6.164,0,0,1,207.36,57.2c.231,0,.462,0,.462.231,0,.693-1.964,1.849-2.541,2.426s-1.5.578-2.2,1.04c-.23.115-.577.462-.807.462s-.232-.116-.232-.231C202.046,60.67,203.085,59.746,203.433,59.4Zm-97.5,4.621c-1.04,1.733-4.5,4.621-6.585,4.621a1.813,1.813,0,0,1-1.964-1.617,2.468,2.468,0,0,1,1.387-1.964c2.31-1.271,6.47-5.546,9.011-5.546a1.3,1.3,0,0,1,1.156,1.387C108.938,62.056,106.626,62.749,105.933,64.02Z" fill="#030504"/>
				<path id="Path_54" data-name="Path 54" d="M292.023,55.124a20.857,20.857,0,0,1,5.315-4.043,30.2,30.2,0,0,1,3.812-2.31C302.537,48.309,306,45.3,306,43.8c0-.116-.115-.232-.115-.347-.116-.115-.231-.115-.462-.115-1.041,0-3,2.31-4.737,2.31-2.657,0-8.087,5.084-11.438,5.084-.346,0-.692-.116-.692-.579,0-1.385,3.35-4.389,3.928-6.353a8.385,8.385,0,0,1,1.848-3.813c.924-1.039.577-2.426,1.964-3.928,1.155-1.271,1.155-3.581,2.31-4.39,1.618-1.04,1.964-2.541,2.657-4.159.925-1.964,4.506-3,6.47-3.7,2.542-.924,4.852-2.657,7.047-3.466,1.5-.462,3.12-3.119,3.582-4.621v-.578c0-1.385-3.35-1.5-4.737-1.5-2.31,0-1.386,1.617-3.7,1.964-5.083.462-7.74,6.931-12.131,6.931a5.926,5.926,0,0,1-3.119-1.039c-1.848-1.156-5.2-1.849-6.354-3.7-1.155-2.08-3.234-2.08-4.274-3.582-.924-1.386-2.2-1.617-3.119-2.888-1.964-2.426-2.311-2.773-5.776-2.773h-.578a3.8,3.8,0,0,0-3.351,1.618c-1.271,1.617-1.732,4.159-2.888,5.892a7.906,7.906,0,0,0-1.617,4.852c0,1.271-.463,2.426-.463,3.581,0,2.2,3.467,4.39,5.43,4.39,1.618,0,2.773-1.039,3.928-1.964a44.919,44.919,0,0,1,3.928-2.426,5.134,5.134,0,0,0,1.964-3.7c0-1.039-.692-1.5-1.733-1.5-3.813,0-1.386,4.274-6.931,6.123a5.113,5.113,0,0,1-1.156.231c-1.963,0-1.963-2.427-1.963-3.813a7.476,7.476,0,0,1,.461-3,12.9,12.9,0,0,0,.924-2.541c.232-1.271.232-2.426,1.734-2.888,1.386-.462,1.617-1.156,3.235-1.156a6.863,6.863,0,0,1,5.2,2.888c1.271,1.618,3.466,2.311,4.737,4.044a11.079,11.079,0,0,0,5.314,3.813c1.386.346,3.813,2.31,4.159,3.812,0,.115.116.231.116.347,0,1.386-2.311,3.581-2.541,5.545-.348,2.31-2.658,3.466-3.005,4.968-.462,2.079-8.086,13.747-9.7,14.094h-.809c-1.04,0-4.389-.347-5.2-1.155-.694-.809-2.2-1.387-2.542-2.31-.231-.809-1.155-2.08-2.079-2.08-.694,0-.809.809-.809,1.386,0,4.852,7.971,6.932,7.971,8.549,0,2.195-7.393,8.2-9.126,10.167-1.387,1.732-3.12,1.732-5.315,3.928-2.773,2.888-4.621,1.617-6.007,3.35-1.849,1.964-3.12,1.5-5.315,2.657a10.924,10.924,0,0,1-4.621,1.155c-2.31,0-3.465-1.386-3.465-3.7,0-1.848,1.155-2.426,1.848-3.927s1.849-2.658,2.657-4.044c.693-1.04,2.2-3.928,3.581-3.928,1.5,0,2.195,4.044,4.043,4.044,2.427,0,3.7-4.737,3.7-6.585,0-1.618-.346-4.968-2.541-4.968-1.156,0-3,1.039-4.044,1.617a15.025,15.025,0,0,0-6.238,7.163c-1.039,2.195-2.657,3.581-4.275,5.314-2.888,3.35-1.27,4.275-2.31,6.7a2.635,2.635,0,0,0-.347,1.271c0,2.426,4.506,4.274,6.47,4.274,1.733,0,3.235-1.039,4.968-1.155,3.119-.231,10.859-3.581,13.169-5.661,1.618-1.387,4.506-1.848,5.546-3.119,1.156-1.5,4.852-3.582,6.7-5.314,1.387-1.271,4.854-6.47,6.47-6.47,1.272,0,2.081,1.848,3.7,1.848C287.98,60.785,290.752,56.511,292.023,55.124Z" fill="#030504"/>
				<path id="Path_55" data-name="Path 55" d="M315.125,31.094c0,2.773,1.733,5.315,4.621,5.315.924,0,2.311-.925,2.311-1.849,0-.808-.809-1.5-.924-2.426-.232-1.386,0-3.235-1.04-4.39-.462-.462-1.156-1.271-1.733-1.271C317.436,26.473,315.125,29.824,315.125,31.094Z" fill="#030504"/>
				<path id="Path_56" data-name="Path 56" d="M386.167,50.965c-1.617,0-3.812.578-4.736,1.964-1.04,1.387-1.734,1.04-2.773,3.12-1.155,2.657-11.437,5.661-14.327,8.087-.659.495-2.552,1.167-3.583,1.931A13.831,13.831,0,0,1,356.71,67.6c-2.426.232-4.39,2.311-7.972,2.311-2.079,0-4.967-1.849-4.967-4.043,0-1.271,4.39-2.311,5.314-3.235,2.541-2.311,6.123-2.195,6.123-7.279,0-1.732-1.04-1.964-2.426-1.964h-1.039c-2.311,0-4.391,2.08-6.355,3.235A12,12,0,0,0,341,60.9c-1.618,2.31-2.079,3.35-4.506,4.621-.085.086-.185.172-.287.261a18.116,18.116,0,0,0-2.713,1.125c-1.618,1.04-4.39,1.387-6.239,2.08a8.8,8.8,0,0,1-2.888.693c-1.5,0-2.657-.809-2.657-2.31,0-.463.115-.809.115-1.156,0-1.733-.809-3.35-.809-4.968,0-1.963,2.08-2.888,3.582-3.581,1.617-.924,2.426-2.657,4.275-3.466,1.616-.809,2.425-2.426,3.812-3.119a16.3,16.3,0,0,0,5.661-4.852c1.5-2.08,2.31-1.617,3.581-3.12,1.733-1.732,5.083-3.234,6.123-5.314,1.733-3.581,3.7-2.426,3.7-7.509,0-1.964-.924-2.426-2.773-2.426-6.239,0-5.43,3.7-9.242,4.852-2.657.693-4.391,3-6.47,4.736-1.964,1.618-4.158,3.235-5.429,5.546-1.156,1.848-3.005,3.119-4.044,4.968-1.271,2.194-3.465,4.043-4.506,6.354-.692,1.5-2.656,4.274-4.274,4.968-1.387.577-2.079,2.541-3.7,3.234-1.849.693-3.119,2.08-4.852,2.889-.018.011-.05.026-.071.038a5.055,5.055,0,0,0-1.231.636,6.864,6.864,0,0,0-.714.442c-1.834.993-4.332.708-5.491,1.656a1.774,1.774,0,0,1-1.5.578c-.463,0-.925-.116-1.272-.116-.808,0-1.5.347-2.31.347a2.768,2.768,0,0,1-2.657-2.657,4.5,4.5,0,0,1,2.426-3.582c1.271-.577,1.5-2.541,2.541-3.235a1.124,1.124,0,0,0,.463-1.039c0-1.387-.924-1.5-1.964-1.5a4.025,4.025,0,0,0-3.235,1.155,13.378,13.378,0,0,1-3,3.235c-.692.462-3,2.657-3,3.466,0,.693.694,1.271,1.04,1.848.578.809.578,2.08.809,3.12.578,1.733,4.274,3.119,6.007,3.119,1.5,0,3.12-.924,4.506-1.271,1.848-.462,4.158-.693,5.545-1.964a18.863,18.863,0,0,1,3.928-2.195c.886-.394,3.014-1.043,3.631-2.081,1.651-1,3.221-1.962,4.222-1.962a1.344,1.344,0,0,1,1.271,1.5c0,3.928,2.311,7.625,6.7,7.625a1.718,1.718,0,0,0,1.04-.231c1.386-.808,3.234,0,5.892-1.5,1.848-1.155,4.274-1.5,5.776-2.541a7.238,7.238,0,0,1,1.145-.53c.869.349,1.309,2.688,4.514,3.649a11.283,11.283,0,0,1,3.465,1.271,5.107,5.107,0,0,0,2.542.577c2.426,0,10.628-2.772,12.707-4.274.681-.454,1.46-1,2.241-1.454.492-.195,1.082-.47,1.717-.774a6.847,6.847,0,0,0,2.162-1.032,12.178,12.178,0,0,1,3.236-1.13c1.733-.347,4.39-3.12,5.43-3.12,1.5,0,2.425-1.27,3.119-1.27s1.5,1.27,1.5,1.964c0,1.386-.924,6.469-2.888,6.469-1.041,0-1.965.116-3.005.116-1.155,0-.924-.462-1.732-.462-.578,0-1.271.115-1.848.115-.463,0-.809-.115-1.156-.115-1.271,0-4.852,2.773-4.852,4.043,0,1.386,2.079,2.889,3.35,2.889s2.311-.809,3.7-.809c.347,0,.925.115,1.5.115a3.764,3.764,0,0,0,1.387-.231,4.625,4.625,0,0,1,2.54-1.155c1.157-.231,2.427-1.5,3.7-1.964,1.04-.462,1.5-1.964,2.2-2.888a7.706,7.706,0,0,0,1.386-4.506c0-1.155-.577-2.079-.577-3.119,0-3.35,3.465-2.773,3.928-3.812.461-1.271,2.425-2.889,2.425-3.929C389.632,51.312,387.322,50.965,386.167,50.965ZM346.89,59.4a6.166,6.166,0,0,1,3.928-2.195c.231,0,.462,0,.462.231,0,.693-1.964,1.849-2.542,2.426s-1.5.578-2.2,1.04c-.23.115-.578.462-.808.462s-.231-.116-.231-.231C345.5,60.67,346.543,59.746,346.89,59.4Zm-21.6-6.816a23,23,0,0,1,4.852-5.083c1.5-1.387,2.2-3.929,3.813-5.084,2.426-1.617,7.971-8.087,10.4-8.2a.57.57,0,0,1,.346.115s.117,0,.117.347c-.117,2.079-4.969,7.509-6.585,8.318-1.733.809-2.773,2.426-3.929,3.928-.808,1.04-2.888,1.04-3.813,2.079-.807,1.04-1.385,2.311-2.541,2.889a8.722,8.722,0,0,0-1.5,1.155c-1.04.808-1.386.924-1.5.924s-.117-.116-.117-.346A2.179,2.179,0,0,1,325.289,52.583Zm43.433,19.755c-.346,0-.809-.346-.809-.693,0-.462.924-.809,1.271-.809s.693.116.693.462A1.356,1.356,0,0,1,368.722,72.338Z" fill="#030504"/>
				<path id="Path_57" data-name="Path 57" d="M91.7,44.177A20.223,20.223,0,0,1,89.881,46c-3.466,3-4.158,2.773-4.158,7.278a12.555,12.555,0,0,1-1.734,7.047c-2.541,4.043-3.35,6.585-7.278,10.051a53.952,53.952,0,0,1-5.8,4.994H91.7Z" fill="#030504"/>
				<path id="Path_58" data-name="Path 58" d="M67.585,19.657c-2.542,0-7.972,2.888-7.972,5.892,0,2.542,3.812,4.621,5.661,6.008.346.346,1.617,1.5,1.964,1.5,1.617,0,6.008-7.855,6.008-9.7C73.246,20.812,69.664,19.657,67.585,19.657Z" fill="#030504"/>
				<path id="Path_59" data-name="Path 59" d="M77.635,20.35l.116,1.04a13.464,13.464,0,0,1-2.541,8.087c-1.156,1.387-1.387,3-2.773,4.159-.232.231-.694.578-.694.924,0,1.156,7.047,6.239,8.2,6.817,1.5.924,2.195,3,4.043,3.235,1.04,0,2.658-1.387,3.467-1.849A53.507,53.507,0,0,0,91.7,39.5V16.368H72.166C74.444,16.835,77.635,18.22,77.635,20.35Z" fill="#030504"/>
				<path id="Path_60" data-name="Path 60" d="M65.274,70.721c1.733-2.426.809-3,3.812-5.084s3.234-4.852,5.546-7.047c2.079-2.079,2.542-4.967,4.621-6.931a2.036,2.036,0,0,0,.924-1.733c0-1.733-1.848-3.12-3-3.928-1.849-1.156-3.12-3.12-4.969-4.044-1.155-.577-3.234-2.541-4.389-2.541a.43.43,0,0,0-.348.115c-1.616.231-5.313,4.505-6.816,5.776l-5.66,4.506c-2.889,2.31-5.661,5.545-9.011,7.278-3,1.5-4.969,4.39-7.857,5.893A56.325,56.325,0,0,0,32.7,65.99v9.378H65.436a4.282,4.282,0,0,1-.856-2.452A3.8,3.8,0,0,1,65.274,70.721Z" fill="#030504"/>
				<path id="Path_61" data-name="Path 61" d="M47.6,52.236c3.581-1.964,5.2-4.968,8.2-6.816,2.889-1.733,3.582-4.159,5.315-5.545.692-.462,2.195-1.387,2.195-2.427,0-1.848-8.549-7.624-8.549-10.975a.7.7,0,0,1,.115-.462c.578-1.733.231-3.7,1.5-5.2a10.9,10.9,0,0,1,7.968-4.444H32.7V62.2a20.25,20.25,0,0,1,4.155-2.224C39.4,58.937,44.017,54.2,47.6,52.236Z" fill="#030504"/>
			</g>
			<g id="Group_8" data-name="Group 8">
				<path id="Path_62" data-name="Path 62" d="M42.86,0V2.215H39.218V14.357H36.512V2.215H32.87V0Z" fill="#1a1818"/>
				<path id="Path_63" data-name="Path 63" d="M53.468,0h2.706V14.357H53.468V8.329h-5.9v6.028H44.883V0h2.685V6.007h5.9Z" fill="#1a1818"/>
				<path id="Path_64" data-name="Path 64" d="M61.861,12.164h5.858v2.193H59.156V0h8.478V2.194H61.861v3.9H67V8.265H61.861Z" fill="#1a1818"/>
			</g>
		</g>
	</g>
</svg>
